{"title":"Madaari (2016) 1080p Web Rip x264 AC3 -DDR","uid":15922806,"size":3194864231,"categoryP":"video","categoryS":"hd___movies","magnet":"?xt=urn:btih:76b81bbe6528a520a11d3b54b6378bc6e3eed737&amp;dn=Madaari+%282016%29+1080p+Web+Rip+x264+AC3+-DDR&amp;tr=udp%3A%2F%2Ftracker.leechers-paradise.org%3A6969&amp;tr=udp%3A%2F%2Fzer0day.ch%3A1337&amp;tr=udp%3A%2F%2Fopen.demonii.com%3A1337&amp;tr=udp%3A%2F%2Ftracker.coppersurfer.tk%3A6969&amp;tr=udp%3A%2F%2Fexodus.desync.com%3A6969","seeders":25,"leechers":103,"uploader":"SaM","files":3,"time":1475265784,"description":"1080p WebRip x264\r\n\r\nHindi AC3 Stereo Audio\r\n\r\n\r\nA man named Nirmal loses his family in a man-made disaster, he starts the journey of seeking answers asking for accountability which urges him to take revenge.\r\n\r\nDirector: Nishikant Kamat\r\nWriters: Shailja Kejriwal (story), Ritesh Shah (screenplay)\r\nStars: Irrfan Khan, Jimmy Shergill, Vishesh Bansal\r\n \nhttps://extraimago.com/image/wzS3 \nhttps://extraimago.com/image/wzSh \nhttps://extraimago.com/image/wzSd \nhttps://extraimago.com/image/wzSI \nhttps://extraimago.com/image/wzSR \nhttps://extraimago.com/image/wzSq \nhttps://extraimago.com/image/wzSc \nhttps://extraimago.com/image/wzS7 \nhttps://extraimago.com/image/wzSs \nhttps://extraimago.com/image/wzSn \nhttps://extraimago.com/image/wzSj \nhttps://extraimago.com/image/wzST \nhttps://extraimago.com/image/wzSN \nhttps://extraimago.com/image/wzS2 \nhttps://extraimago.com/image/wzSw \nhttps://extraimago.com/image/wzSa\r\n\r\nSpecs:\r\nSource: WEB HD @ DDR\r\n\r\nFormat : Matroska\r\nFormat version : Version 4 / Version 2\r\nFile size : 2.95 GiB\r\nDuration : 2 h 10 min\r\nOverall bit rate : 3 237 kb/s\r\nEncoded date : UTC 2016-09-29 17:34:51\r\nWriting application : mkvmerge v9.4.2 ('So High') 64bit\r\nWriting library : libebml v1.3.4 + libmatroska v1.4.5\r\n\r\nVideo\r\nFormat : AVC\r\nFormat/Info : Advanced Video Codec\r\nFormat profile :   \r\nFormat settings, CABAC : Yes\r\nFormat settings, ReFrames : 5 frames\r\nCodec ID : V_MPEG4/ISO/AVC\r\nDuration : 2 h 10 min\r\nBit rate : 3 000 kb/s\r\nWidth : 1 920 pixels\r\nHeight : 800 pixels\r\nDisplay aspect ratio : 2.40:1\r\nFrame rate mode : Variable\r\nFrame rate : 23.804 FPS\r\nOriginal frame rate : 24.000 FPS\r\nColor space : YUV\r\nChroma subsampling : 4:2:0\r\nBit depth : 8 bits\r\nScan type : Progressive\r\nBits/(Pixel*Frame) : 0.082\r\nStream size : 2.72 GiB (92%)\r\nDefault : Yes\r\nForced : No\r\nColor range : Limited\r\nColor primaries : BT.709\r\nTransfer characteristics : BT.709\r\nMatrix coefficients : BT.709\r\n\r\nAudio\r\nID : 2\r\nFormat : AC-3\r\nFormat/Info : Audio Coding 3\r\nMode extension : CM (complete main)\r\nFormat settings, Endianness : Big\r\nCodec ID : A_AC3\r\nDuration : 2 h 10 min\r\nBit rate mode : Constant\r\nBit rate : 256 kb/s\r\nChannel(s) : 2 channels\r\nChannel positions : Front: L R\r\nSampling rate : 44.1 kHz\r\nFrame rate : 28.711 FPS (1536 spf)\r\nCompression mode : Lossy\r\nStream size : 239 MiB (8%)\r\nLanguage : Hindi\r\nDefault : Yes\r\nForced : No\r\n\r\n\r\nSAMPLE Included","torrent":{"xt":"urn:btih:76b81bbe6528a520a11d3b54b6378bc6e3eed737","amp;dn":"Madaari+%282016%29+1080p+Web+Rip+x264+AC3+-DDR","amp;tr":["udp%3A%2F%2Ftracker.leechers-paradise.org%3A6969","udp%3A%2F%2Fzer0day.ch%3A1337","udp%3A%2F%2Fopen.demonii.com%3A1337","udp%3A%2F%2Ftracker.coppersurfer.tk%3A6969","udp%3A%2F%2Fexodus.desync.com%3A6969"],"infoHash":"76b81bbe6528a520a11d3b54b6378bc6e3eed737","infoHashBuffer":{"type":"Buffer","data":[118,184,27,190,101,40,165,32,161,29,59,84,182,55,139,198,227,238,215,55]},"announce":[],"urlList":[]}}